Coordinates
version=1
nRows=19
nColumns=24
inDegrees=yes

Units are S.I. units (second, meters, Newtons, ...)
Angles are in degrees.

endheader
time	pelvis_tilt	pelvis_list	pelvis_rotation	pelvis_tx	pelvis_ty	pelvis_tz	hip_flexion_r	hip_adduction_r	hip_rotation_r	knee_angle_r	ankle_angle_r	subtalar_angle_r	mtp_angle_r	hip_flexion_l	hip_adduction_l	hip_rotation_l	knee_angle_l	ankle_angle_l	subtalar_angle_l	mtp_angle_l	lumbar_extension	lumbar_bending	lumbar_rotation
      1.96500000	     23.76295542	     -6.28603911	      6.85914212	      0.12027181	      0.85529884	     -0.00111724	    -22.18260722	     13.04803020	    -20.80669166	     -4.81448769	     24.73296112	     13.38941117	     33.18921135	     -5.90129034	    -11.00111531	     -5.63747707	    -63.34774253	     19.01321085	     -7.09486112	    122.23424323	    -37.68117843	      9.59387431	     -9.76076498
      1.97000000	     23.71275561	     -6.08193916	      6.70472524	      0.12578069	      0.85577925	     -0.00052263	    -22.70588036	     12.88292877	    -20.73198980	     -4.52071165	     24.87273538	     13.54357238	     33.05205649	     -5.36386434	    -10.61254318	     -5.91414720	    -62.28785075	     19.65982651	     -6.54663983	    122.09886368	    -37.66436279	      9.28185901	     -9.69391099
      1.97500000	     23.66540783	     -5.87460222	      6.56198886	      0.13131111	      0.85622647	      0.00005392	    -23.23184595	     12.71895764	    -20.63163612	     -4.22702460	     25.00598753	     13.64698013	     32.89205847	     -4.85434273	    -10.22398312	     -6.19411776	    -61.12177034	     20.25608619	     -6.04544905	    121.94116015	    -37.64211698	      8.96958729	     -9.63864730
      1.98000000	     23.64283627	     -5.66619775	      6.42872210	      0.13686169	      0.85665998	      0.00059631	    -23.80614631	     12.56004789	    -20.46970670	     -3.88109668	     25.08749071	     13.76020379	     32.57750014	     -4.39747932	     -9.84062876	     -6.47884178	    -59.86130863	     20.76100528	     -5.51375402	    121.66372784	    -37.64468593	      8.66283074	     -9.56672563
      1.98500000	     23.61431069	     -5.44036214	      6.30704748	      0.14241755	      0.85703230	      0.00109374	    -24.33946103	     12.37998520	    -20.35487226	     -3.61798902	     25.26739613	     13.72356353	     32.38926656	     -3.96400607	     -9.43407399	     -6.77074385	    -58.49127394	     21.29086833	     -5.15494738	    121.46701017	    -37.63782155	      8.34524120	     -9.55904853
      1.99000000	     23.58204772	     -5.23880073	      6.20318579	      0.14803736	      0.85734015	      0.00160144	    -24.89852254	     12.23863094	    -20.13539066	     -3.29389398	     25.44916437	     13.74185310	     31.00725492	     -3.54716883	     -9.06550926	     -7.05652239	    -57.05188550	     21.72363364	     -4.73859077	    120.22036609	    -37.61153758	      8.05147169	     -9.52963398
      1.99500000	     23.58224875	     -4.98139213	      6.09970147	      0.15365055	      0.85766250	      0.00204207	    -25.46868201	     12.03081744	    -20.00571316	     -3.02880647	     25.61990895	     13.70481785	     30.95643863	     -3.21145889	     -8.63049547	     -7.34948872	    -55.47566591	     22.09988502	     -4.46210585	    120.16434443	    -37.62605622	      7.71080392	     -9.53824635
      2.00000000	     23.60693026	     -4.73071282	      6.00398072	      0.15931065	      0.85796994	      0.00247725	    -26.08898172	     11.84039230	    -19.81474081	     -2.70915557	     25.72042021	     13.61692625	     30.86464297	     -2.94118142	     -8.21255217	     -7.65464942	    -53.79798815	     22.46467388	     -4.19390272	    120.06354116	    -37.65874917	      7.37774753	     -9.54129938
      2.00500000	     23.63024083	     -4.47720271	      5.91497656	      0.16498865	      0.85822645	      0.00286254	    -26.70601280	     11.64591689	    -19.60513324	     -2.39355902	     25.82385603	     13.48119993	     30.75356746	     -2.70201161	     -7.78897288	     -7.96209265	    -52.02765845	     22.79048656	     -3.96282289	    119.93286213	    -37.68725419	      7.05040671	     -9.56081307
      2.01000000	     23.67948480	     -4.21667404	      5.82872573	      0.17068657	      0.85847090	      0.00324527	    -27.35404919	     11.44650711	    -19.37240039	     -2.07967674	     25.90731571	     13.32638956	     30.61288325	     -2.53371606	     -7.36322185	     -8.27798738	    -50.15034166	     23.06594855	     -3.75559734	    119.76437863	    -37.74147064	      6.71359303	     -9.58290231
      2.01500000	     23.72989799	     -3.95415565	      5.73175132	      0.17641081	      0.85868114	      0.00358876	    -28.00590562	     11.23404504	    -19.12131933	     -1.76291156	     25.95882790	     13.17791727	     30.41934420	     -2.41167418	     -6.93299915	     -8.62324648	    -48.17094241	     23.29656983	     -3.57314813	    119.53307347	    -37.79688992	      6.37620354	     -9.61385978
      2.02000000	     23.79001250	     -3.67447729	      5.66895019	      0.18214015	      0.85882566	      0.00385702	    -28.65525150	     11.01838654	    -18.92600341	     -1.47749134	     26.13526378	     12.95689005	     30.28057597	     -2.32905746	     -6.47979892	     -8.92031569	    -46.10711132	     23.51783258	     -3.38594841	    119.35835109	    -37.85911314	      6.04281546	     -9.67117236
      2.02500000	     23.87844903	     -3.39192733	      5.57604142	      0.18790225	      0.85899061	      0.00413113	    -29.34700441	     10.78368836	    -18.69496157	     -1.17665061	     26.21318580	     12.78940266	     30.10594889	     -2.34168926	     -6.02572549	     -9.28075109	    -43.91569413	     23.68058888	     -3.20910181	    119.15716815	    -37.95280887	      5.69450973	     -9.72198536
      2.03000000	     23.96094185	     -3.10597673	      5.49960398	      0.19368385	      0.85909111	      0.00435504	    -30.02216993	     10.54912064	    -18.48989589	     -0.90197583	     26.34589755	     12.60425168	     29.94711534	     -2.38536467	     -5.56186774	     -9.61783610	    -41.63593299	     23.81340810	     -3.01585309	    118.97914650	    -38.03618426	      5.35204920	     -9.79942134
      2.03500000	     24.06580825	     -2.81530362	      5.40915930	      0.19949893	      0.85917875	      0.00455375	    -30.72588987	     10.30142074	    -18.29922564	     -0.62523398	     26.45388004	     12.44844970	     29.77611368	     -2.51163304	     -5.08946509	     -9.98885742	    -39.24570689	     23.89817228	     -2.80864351	    118.80319492	    -38.14294107	      5.00317546	     -9.87049923
      2.04000000	     24.18328785	     -2.52174082	      5.31312975	      0.20533302	      0.85923793	      0.00470653	    -31.44052979	     10.04378601	    -18.13679092	     -0.35852203	     26.56454251	     12.32520064	     29.59206926	     -2.70655070	     -4.60503400	    -10.37244227	    -36.74664382	     23.93652095	     -2.58033376	    118.63287434	    -38.26167123	      4.65478926	     -9.93142800
      2.04500000	     24.30083634	     -2.22869229	      5.20761078	      0.21121355	      0.85925387	      0.00481875	    -32.15597242	      9.77773753	    -18.01438311	     -0.09672210	     26.66963032	     12.26224913	     29.37142565	     -2.95542456	     -4.10979142	    -10.77497219	    -34.15155599	     23.93338983	     -2.33960368	    118.45825264	    -38.37539473	      4.30725476	     -9.98547636
      2.05000000	     24.43302586	     -1.93662597	      5.11264212	      0.21708911	      0.85923028	      0.00488821	    -32.87347566	      9.51248499	    -17.91692962	      0.12859917	     26.82310823	     12.20460091	     29.16846661	     -3.26604589	     -3.60601098	    -11.15016544	    -31.46666155	     23.86031245	     -2.06184964	    118.32722417	    -38.50708846	      3.96782854	    -10.07582164
      2.05500000	     24.57440300	     -1.63874784	      5.02271168	      0.22299896	      0.85915725	      0.00483487	    -33.57192381	      9.22905165	    -17.99753612	      0.27270760	     27.10808772	     12.45136568	     28.50042589	     -3.64059403	     -3.07281624	    -11.51611478	    -28.68657181	     23.72092778	     -1.79695206	    118.06601331	    -38.64578239	      3.64179046	    -10.18864140
